<svg width="48" height="38" viewBox="0 0 48 38" fill="none" xmlns="http://www.w3.org/2000/svg">
<path d="M42.8264 37.5179C41.8686 37.537 40.9278 37.2687 40.1303 36.7489C39.5368 36.3692 38.8431 36.1669 38.134 36.1669C37.425 36.1669 36.7313 36.3692 36.1377 36.7489C35.3321 37.2511 34.397 37.5179 33.442 37.5179C32.487 37.5179 31.5519 37.2511 30.7463 36.7489C30.1528 36.3688 29.4589 36.1663 28.7497 36.1663C28.0404 36.1663 27.3466 36.3688 26.753 36.7489C25.9474 37.2511 25.0123 37.5179 24.0573 37.5179C23.1023 37.5179 22.1672 37.2511 21.3616 36.7489C20.7685 36.369 20.0751 36.1667 19.3663 36.1667C18.6576 36.1667 17.9642 36.369 17.3711 36.7489C16.6407 37.2242 15.7883 37.4883 14.9117 37.5111L14.8634 36.1597C15.5109 36.1447 16.1397 35.9441 16.672 35.5827C17.4774 35.0807 18.4123 34.814 19.367 34.814C20.3218 34.814 21.2567 35.0807 22.062 35.5827C22.6555 35.9626 23.3493 36.165 24.0583 36.165C24.7674 36.165 25.4612 35.9626 26.0547 35.5827C26.8604 35.0802 27.7958 34.8132 28.751 34.8132C29.7063 34.8132 30.6417 35.0802 31.4474 35.5827C32.0409 35.9626 32.7347 36.165 33.4437 36.165C34.1528 36.165 34.8465 35.9626 35.4401 35.5827C36.2457 35.0807 37.1808 34.814 38.1357 34.814C39.0907 34.814 40.0258 35.0807 40.8314 35.5827C41.4264 35.9635 42.1218 36.1664 42.8326 36.1664C43.5434 36.1664 44.2388 35.9635 44.8337 35.5827C45.6303 35.0645 46.5694 34.7967 47.5256 34.8151V36.1665C46.8137 36.1474 46.1141 36.3512 45.5286 36.7483C44.7292 37.2688 43.7862 37.5373 42.8264 37.5179Z" fill="white"/>
<path d="M5.29452 37.5176C4.33694 37.537 3.39629 37.2686 2.59918 36.7486C2.01381 36.3513 1.31419 36.1472 0.602173 36.1662V34.8149C1.55998 34.7954 2.50089 35.0637 3.2982 35.5838C3.88326 35.9813 4.5827 36.1853 5.29452 36.1662C6.00667 36.1854 6.70641 35.9811 7.29153 35.5831C8.08715 35.0634 9.02651 34.7952 9.98273 34.8149C10.9158 34.7943 11.8334 35.0504 12.6153 35.5493L11.919 36.7155C11.3479 36.3392 10.6709 36.1471 9.98273 36.1662C9.27353 36.1475 8.57676 36.3511 7.994 36.7473C7.19599 37.2687 6.25368 37.5376 5.29452 37.5176Z" fill="white"/>
<path d="M42.8285 32.7872C41.8701 32.8064 40.9286 32.5381 40.1304 32.0183C39.5363 31.6382 38.842 31.4357 38.1324 31.4357C37.4227 31.4357 36.7284 31.6382 36.1343 32.0183C35.3288 32.5204 34.3938 32.787 33.439 32.787C32.4841 32.787 31.5491 32.5204 30.7436 32.0183C30.1504 31.6384 29.4569 31.4361 28.748 31.4361C28.0391 31.4361 27.3456 31.6384 26.7524 32.0183C25.9469 32.5205 25.0119 32.7873 24.057 32.7873C23.1022 32.7873 22.1671 32.5205 21.3617 32.0183C20.7684 31.6384 20.0749 31.4361 19.3661 31.4361C18.6572 31.4361 17.9637 31.6384 17.3704 32.0183C16.5734 32.5383 15.6327 32.8067 14.6751 32.7872C13.7175 32.8067 12.7768 32.5383 11.9797 32.0183C11.3949 31.6209 10.6957 31.4169 9.98412 31.4359C9.27275 31.417 8.57381 31.621 7.98918 32.0183C7.19337 32.5377 6.25419 32.8061 5.29798 32.7872C4.34017 32.8067 3.39926 32.5384 2.60194 32.0183C2.01593 31.6201 1.31517 31.416 0.602173 31.4359V30.0845C1.55975 30.0651 2.50041 30.3335 3.29752 30.8534C3.88289 31.2508 4.58251 31.4549 5.29453 31.4359C6.00589 31.4548 6.70484 31.2507 7.28947 30.8534C8.08527 30.334 9.02445 30.0657 9.98067 30.0845C10.939 30.0646 11.8805 30.333 12.6781 30.8534C13.2631 31.2509 13.9626 31.455 14.6744 31.4359C15.3862 31.455 16.0857 31.2509 16.6707 30.8534C17.4761 30.3512 18.4112 30.0844 19.3661 30.0844C20.3209 30.0844 21.256 30.3512 22.0614 30.8534C22.6548 31.2334 23.3484 31.4357 24.0574 31.4357C24.7664 31.4357 25.46 31.2334 26.0534 30.8534C26.8588 30.3512 27.7938 30.0844 28.7487 30.0844C29.7036 30.0844 30.6386 30.3512 31.444 30.8534C32.0374 31.2334 32.731 31.4357 33.44 31.4357C34.149 31.4357 34.8426 31.2334 35.436 30.8534C36.2422 30.3514 37.1779 30.0847 38.1334 30.0847C39.0889 30.0847 40.0246 30.3514 40.8308 30.8534C41.4253 31.2333 42.1197 31.4355 42.8296 31.4355C43.5394 31.4355 44.2338 31.2333 44.8283 30.8534C45.6263 30.3338 46.5675 30.0655 47.5257 30.0845V31.4359C46.8123 31.4161 46.1111 31.6202 45.5245 32.0183C44.7269 32.5377 43.7862 32.806 42.8285 32.7872Z" fill="white"/>
<path d="M42.8265 28.0583C41.8687 28.0775 40.9279 27.8092 40.1304 27.2894C39.5451 26.8921 38.8455 26.688 38.1334 26.707C37.6109 26.6894 37.092 26.7985 36.6229 27.0246L36.0143 25.8083C36.6731 25.4922 37.4 25.3362 38.1334 25.3536C39.0924 25.3345 40.0342 25.6035 40.8322 26.1246C41.4272 26.5054 42.1226 26.7082 42.8334 26.7082C43.5442 26.7082 44.2396 26.5054 44.8345 26.1246C45.6307 25.6059 46.5696 25.3377 47.5257 25.3556V26.707C46.8138 26.6879 46.1142 26.8917 45.5287 27.2887C44.7293 27.8093 43.7863 28.0778 42.8265 28.0583Z" fill="white"/>
<path d="M33.4348 28.058C32.4786 28.0776 31.5393 27.8095 30.7436 27.2897C30.1501 26.9096 29.4562 26.7071 28.747 26.7071C28.0377 26.7071 27.3439 26.9096 26.7503 27.2897C25.9447 27.7919 25.0096 28.0586 24.0546 28.0586C23.0996 28.0586 22.1645 27.7919 21.3589 27.2897C20.7654 26.9098 20.0717 26.7075 19.3626 26.7075C18.6535 26.7075 17.9598 26.9098 17.3663 27.2897C16.5693 27.8088 15.6293 28.0769 14.6723 28.058C13.7147 28.0773 12.7741 27.809 11.977 27.289C11.3916 26.8917 10.692 26.6876 9.97998 26.7066C9.27077 26.6879 8.574 26.8915 7.99125 27.2877C7.19401 27.8086 6.25275 28.0774 5.29452 28.058C4.33694 28.0773 3.39629 27.809 2.59918 27.289C2.01381 26.8917 1.31419 26.6876 0.602173 26.7066V25.3553C1.55998 25.3358 2.50089 25.6041 3.29821 26.1242C3.88326 26.5217 4.5827 26.7257 5.29452 26.7066C6.00667 26.7258 6.70642 26.5214 7.29153 26.1235C8.08715 25.6037 9.02651 25.3356 9.98274 25.3553C10.9403 25.3359 11.881 25.6043 12.6781 26.1242C13.2631 26.5217 13.9626 26.7257 14.6744 26.7066C15.3864 26.7256 16.086 26.5215 16.6714 26.1242C17.477 25.622 18.4121 25.3552 19.3671 25.3552C20.3221 25.3552 21.2572 25.622 22.0628 26.1242C22.6563 26.5041 23.35 26.7064 24.0591 26.7064C24.7682 26.7064 25.4619 26.5041 26.0554 26.1242C26.8611 25.6216 27.7965 25.3547 28.7518 25.3547C29.7071 25.3547 30.6425 25.6216 31.4482 26.1242C32.0561 26.5246 32.777 26.728 33.5094 26.7059C33.5626 26.7066 33.6159 26.7039 33.6688 26.6978L33.8523 28.037C33.7138 28.0528 33.5743 28.0598 33.4348 28.058Z" fill="white"/>
<path d="M42.8285 23.3278C41.8701 23.3469 40.9286 23.0786 40.1304 22.5588C39.5363 22.1787 38.842 21.9763 38.1324 21.9763C37.4227 21.9763 36.7284 22.1787 36.1343 22.5588C35.3288 23.0609 34.3938 23.3276 33.439 23.3276C32.4841 23.3276 31.5491 23.0609 30.7436 22.5588C30.1504 22.179 29.4569 21.9766 28.748 21.9766C28.0391 21.9766 27.3456 22.179 26.7524 22.5588C25.9469 23.061 25.0119 23.3278 24.057 23.3278C23.1022 23.3278 22.1671 23.061 21.3617 22.5588C20.7684 22.179 20.0749 21.9766 19.3661 21.9766C18.6572 21.9766 17.9637 22.179 17.3704 22.5588C16.5734 23.0789 15.6327 23.3472 14.6751 23.3278C13.7175 23.3472 12.7768 23.0789 11.9797 22.5588C11.3949 22.1615 10.6957 21.9574 9.98412 21.9764C9.27275 21.9575 8.57381 22.1615 7.98918 22.5588C7.19337 23.0783 6.25419 23.3466 5.29798 23.3278C4.34017 23.3472 3.39926 23.0789 2.60194 22.5588C2.01593 22.1607 1.31517 21.9566 0.602173 21.9764V20.6251C1.55975 20.6057 2.50041 20.874 3.29752 21.394C3.88289 21.7913 4.58251 21.9954 5.29453 21.9764C6.00589 21.9953 6.70484 21.7913 7.28947 21.394C8.08527 20.8745 9.02445 20.6062 9.98067 20.6251C10.939 20.6051 11.8805 20.8735 12.6781 21.394C13.2631 21.7915 13.9626 21.9955 14.6744 21.9764C15.3862 21.9955 16.0857 21.7915 16.6707 21.394C17.4761 20.8917 18.4112 20.6249 19.3661 20.6249C20.3209 20.6249 21.256 20.8917 22.0614 21.394C22.6548 21.7739 23.3484 21.9763 24.0574 21.9763C24.7664 21.9763 25.46 21.7739 26.0534 21.394C26.8588 20.8917 27.7938 20.6249 28.7487 20.6249C29.7036 20.6249 30.6386 20.8917 31.444 21.394C32.0374 21.7739 32.731 21.9763 33.44 21.9763C34.149 21.9763 34.8426 21.7739 35.436 21.394C36.2422 20.8919 37.1779 20.6252 38.1334 20.6252C39.0889 20.6252 40.0246 20.8919 40.8308 21.394C41.4253 21.7738 42.1197 21.9761 42.8296 21.9761C43.5394 21.9761 44.2339 21.7738 44.8283 21.394C45.6263 20.8743 46.5675 20.606 47.5257 20.6251V21.9764C46.8123 21.9567 46.1111 22.1607 45.5245 22.5588C44.7269 23.0782 43.7862 23.3465 42.8285 23.3278Z" fill="white"/>
<path d="M32.9954 22.7548L31.6932 22.3075C32.0286 21.3641 32.1656 20.364 32.096 19.3673C32.0264 18.3707 31.7516 17.3982 31.2882 16.5082L26.5482 7.41969C26.5014 7.32994 26.4757 7.23108 26.473 7.13034C26.4703 7.0296 26.4906 6.92954 26.5325 6.83748C26.5743 6.74543 26.6367 6.66372 26.715 6.59832C26.7933 6.53293 26.8856 6.48552 26.985 6.45956L36.4311 3.99334C36.739 3.91452 37.0025 3.71986 37.1645 3.45171C37.3265 3.18356 37.3738 2.86363 37.2962 2.56151C37.2185 2.25939 37.0221 1.99953 36.7497 1.83846C36.4774 1.67739 36.1511 1.62815 35.8418 1.70145L24.4091 4.37713C24.1647 4.43368 23.9368 4.54456 23.7432 4.70118C23.5496 4.85781 23.3954 5.05597 23.2926 5.28032C23.1898 5.50467 23.1411 5.74918 23.1503 5.99492C23.1595 6.24066 23.2264 6.48102 23.3457 6.6974L26.7407 12.8731C26.8269 13.03 26.8462 13.2139 26.7945 13.3848C26.7428 13.5556 26.6243 13.6995 26.4647 13.7852L22.0829 16.1501L21.417 14.9663L25.1999 12.9244L22.1319 7.33794C21.9124 6.93913 21.7896 6.49624 21.7728 6.04352C21.7561 5.59079 21.8459 5.14036 22.0353 4.72706C22.2248 4.31375 22.5087 3.94865 22.8653 3.65997C23.2219 3.3713 23.6415 3.16679 24.0916 3.06226L35.5189 0.387261C36.1841 0.222666 36.8889 0.323577 37.4782 0.667795C38.0675 1.01201 38.4929 1.57134 38.661 2.22273C38.8291 2.87413 38.7261 3.56423 38.3745 4.14122C38.023 4.71821 37.4518 5.13483 36.7865 5.29942L28.165 7.54942L32.5179 15.8927C33.066 16.9458 33.3908 18.0967 33.4729 19.276C33.555 20.4552 33.3925 21.6386 32.9954 22.7548Z" fill="white"/>
<path d="M19.0049 16.2788L10.6193 20.8032L11.285 21.9862L19.6706 17.4617L19.0049 16.2788Z" fill="white"/>
<path d="M39.2451 18.2604C38.2215 18.2604 37.2209 17.9632 36.3698 17.4063C35.5187 16.8495 34.8554 16.0581 34.4637 15.1321C34.0719 14.2061 33.9695 13.1872 34.1691 12.2042C34.3688 11.2212 34.8617 10.3182 35.5855 9.6095C36.3093 8.90079 37.2315 8.41815 38.2354 8.22262C39.2393 8.02709 40.2799 8.12744 41.2256 8.51099C42.1713 8.89454 42.9796 9.54407 43.5483 10.3774C44.1169 11.2108 44.4205 12.1905 44.4205 13.1928C44.419 14.5364 43.8733 15.8245 42.903 16.7745C41.9328 17.7246 40.6172 18.2589 39.2451 18.2604ZM39.2451 9.4766C38.4945 9.4766 37.7607 9.69455 37.1365 10.1029C36.5124 10.5112 36.026 11.0916 35.7387 11.7707C35.4514 12.4497 35.3763 13.1969 35.5227 13.9178C35.6692 14.6387 36.0306 15.3008 36.5614 15.8206C37.0922 16.3403 37.7685 16.6942 38.5047 16.8376C39.2409 16.981 40.004 16.9074 40.6975 16.6261C41.391 16.3449 41.9837 15.8686 42.4007 15.2574C42.8178 14.6463 43.0404 13.9278 43.0404 13.1928C43.0391 12.2076 42.6388 11.2631 41.9273 10.5664C41.2159 9.86978 40.2513 9.47785 39.2451 9.4766Z" fill="white"/>
</svg>
