<svg width="47" height="46" viewBox="0 0 47 46" fill="none" xmlns="http://www.w3.org/2000/svg">
<path d="M1.15858 9.32394C0.527584 9.32394 0.0113144 8.81842 -0.000160217 8.20057V1.1346C-0.000160217 0.505515 0.516113 0 1.15858 0H8.37489C9.00589 0 9.52216 0.505515 9.52216 1.1346V3.59477H37.286V1.1346C37.286 0.516748 37.8023 0.0112337 38.4333 0H45.6496C46.2806 0 46.7969 0.505515 46.8083 1.1346V8.20057C46.8083 8.81842 46.2921 9.32394 45.6496 9.32394H43.1371V36.5094H45.6496C46.2806 36.5094 46.7969 37.0149 46.8083 37.6328V44.6987C46.8083 45.3166 46.2921 45.8221 45.6496 45.8333H38.4333C37.8023 45.8333 37.286 45.3278 37.286 44.6987V42.2386H9.52216V44.6987C9.52216 45.3166 9.00589 45.8221 8.37489 45.8333H1.15858C0.527584 45.8333 0.0113144 45.3278 -0.000160217 44.6987V37.6328C-0.000160217 37.0149 0.516113 36.5094 1.15858 36.5094H3.6711V9.32394H1.15858ZM44.5138 7.07721V2.24673H39.5806V7.07721H44.5138ZM39.5806 43.5866H44.5138V38.7561H39.5806V43.5866ZM9.52216 37.6328V39.9918H37.286V37.6328C37.286 37.0149 37.8023 36.5094 38.4333 36.5094H40.8426V9.32394H38.4333C37.8023 9.32394 37.286 8.81842 37.286 8.20057V5.8415H9.52216V8.20057C9.52216 8.81842 9.00589 9.32394 8.37489 9.32394H5.96563V36.5094H8.37489C9.00589 36.5094 9.52216 37.0149 9.52216 37.6328ZM2.29438 38.7561V43.5866H7.22763V38.7561H2.29438ZM7.22763 7.07721V2.24673H2.29438V7.07721H7.22763Z" fill="white"/>
</svg>
