<svg width="27" height="24" viewBox="0 0 27 24" fill="none" xmlns="http://www.w3.org/2000/svg">
<path d="M24.5486 1.12253C24.2315 0.805032 23.8161 0.646484 23.4007 0.646484C22.9851 0.646484 22.5698 0.805032 22.2528 1.12253L2.76925 20.6057C2.13486 21.2399 2.13486 22.2673 2.76925 22.9015C3.08635 23.2186 3.50177 23.3771 3.91714 23.3771C4.33271 23.3771 4.74793 23.2186 5.06502 22.9015L24.5486 3.41831C25.1829 2.78411 25.1829 1.75632 24.5486 1.12253Z" fill="#BDADAD"/>
<path d="M4.38952 16.6896L8.81328 12.2657C8.81019 12.1801 8.78801 12.0992 8.78801 12.012C8.78801 9.3294 10.9712 7.14423 13.654 7.14103C13.6555 7.13946 13.6588 7.13946 13.6621 7.14103C13.6621 7.14103 13.6621 7.14103 13.6635 7.14103C13.7492 7.14103 13.8284 7.16163 13.9123 7.1664L16.8267 4.25226C15.8484 4.04298 14.8193 3.89392 13.6667 3.89392C13.6667 3.89392 13.6667 3.89392 13.6651 3.89392C13.6635 3.89392 13.6621 3.89392 13.6588 3.89392C13.6588 3.89392 13.6555 3.89392 13.6524 3.89392C13.6508 3.89392 13.6508 3.89392 13.6508 3.89392C7.35139 3.89717 3.85046 7.3218 1.00588 11.0223C0.55875 11.6061 0.55875 12.4179 1.00588 13.0014C2.01602 14.3157 3.11794 15.5861 4.38952 16.6896Z" fill="#BDADAD"/>
<path d="M26.3118 11.0223C25.3016 9.70838 24.1997 8.43797 22.9281 7.33447L18.5044 11.7583C18.5075 11.844 18.5297 11.9248 18.5297 12.012C18.5297 14.6946 16.3465 16.8795 13.6637 16.883C13.6622 16.883 13.6622 16.883 13.6622 16.883C13.6622 16.883 13.6605 16.883 13.6589 16.883C13.6573 16.883 13.6556 16.883 13.6556 16.883C13.6556 16.883 13.6556 16.883 13.6542 16.883C13.5685 16.883 13.4893 16.862 13.4052 16.8576L10.491 19.7718C11.4693 19.9811 12.4984 20.1301 13.651 20.1301C13.651 20.1301 13.651 20.1301 13.6526 20.1301H13.6542C13.6556 20.1301 13.6589 20.1301 13.6589 20.1301C13.6589 20.1301 13.6605 20.1301 13.6622 20.1301C13.6622 20.1301 13.6622 20.1301 13.6637 20.1301H13.6653C13.6668 20.1301 13.6668 20.1301 13.6668 20.1301C13.6716 20.1301 13.678 20.1301 13.6843 20.1301C13.6906 20.1286 13.697 20.1286 13.7065 20.1301C19.9791 20.1127 23.472 16.6944 26.3119 13.0014C26.7589 12.418 26.7589 11.6062 26.3118 11.0223Z" fill="#BDADAD"/>
</svg>
